<svg id="Landing_Page" data-name="Landing Page" xmlns="http://www.w3.org/2000/svg" xmlns:xlink="http://www.w3.org/1999/xlink" viewBox="0 0 357.9 398"><defs><style>.cls-1{fill:#e2ff93;}.cls-11,.cls-13,.cls-2{fill:#ff93bf;}.cls-14,.cls-15,.cls-16,.cls-2,.cls-6{stroke:#192006;}.cls-10,.cls-13,.cls-14,.cls-15,.cls-16,.cls-17,.cls-18,.cls-2,.cls-6{stroke-linecap:round;}.cls-13,.cls-14,.cls-15,.cls-16,.cls-2{stroke-linejoin:round;}.cls-14,.cls-16,.cls-2{stroke-width:4px;}.cls-3{clip-path:url(#clip-path);}.cls-16,.cls-4{fill:#e0e6d1;}.cls-5{fill:#a8ad9d;}.cls-10,.cls-14,.cls-15,.cls-17,.cls-18,.cls-6{fill:none;}.cls-10,.cls-17,.cls-18,.cls-6{stroke-miterlimit:10;}.cls-10,.cls-13,.cls-15,.cls-17,.cls-18,.cls-6{stroke-width:4px;}.cls-7{fill:#192006;}.cls-8{fill:#a6ce39;}.cls-9{fill:#658117;}.cls-10{stroke:#658117;}.cls-12{clip-path:url(#clip-path-2);}.cls-13{stroke:#811742;}.cls-17{stroke:#a8ad9d;}.cls-18{stroke:#e2ff93;}</style><clipPath id="clip-path" transform="translate(-1539.1 593)"><circle id="_Ellipse_" data-name="&lt;Ellipse&gt;" class="cls-1" cx="1716" cy="-428.9" r="144"/></clipPath><clipPath id="clip-path-2" transform="translate(-1539.1 593)"><rect id="_Rectangle_" data-name="&lt;Rectangle&gt;" class="cls-2" x="1614.2" y="-507.6" width="55.7" height="78.67" rx="27.9" ry="27.9"/></clipPath></defs><title>dakwah</title><g id="Hero"><circle id="_Ellipse_2" data-name="&lt;Ellipse&gt;" class="cls-1" cx="177" cy="164.1" r="144"/><g class="cls-3"><path class="cls-4" d="M1845-344v10H1586v-10h-30.6a26.1,26.1,0,0,0,.5,7.2c1.3,6.3-8.4,9-9.6,2.7a40.2,40.2,0,0,1-.8-9.8H1544v149h345V-344h-44Z" transform="translate(-1539.1 593)"/><rect class="cls-5" x="46.9" y="249" width="259" height="10"/></g><path class="cls-6" d="M1867.8-344H1895" transform="translate(-1539.1 593)"/><path class="cls-6" d="M1558.9-344h296.3" transform="translate(-1539.1 593)"/><path class="cls-6" d="M1541.1-344h5.1" transform="translate(-1539.1 593)"/><circle id="_Ellipse_3" data-name="&lt;Ellipse&gt;" class="cls-6" cx="179" cy="164.1" r="144"/><circle class="cls-7" cx="1677.1" cy="-547.2" r="4.3" transform="translate(-660.9 1618.6) rotate(-45)"/><circle class="cls-7" cx="1593.7" cy="-428" r="4.3" transform="translate(-769.7 1594.5) rotate(-45)"/><path class="cls-6" d="M1828.8-368h62.7" transform="translate(-1539.1 593)"/><path class="cls-6" d="M1799.3-368h21.9" transform="translate(-1539.1 593)"/><path class="cls-6" d="M1785.2-368h5.6" transform="translate(-1539.1 593)"/><line class="cls-6" x1="16.2" y1="204" x2="76.5" y2="204"/><line class="cls-6" x1="5" y1="204" x2="9.4" y2="204"/><rect class="cls-8" x="163.9" y="3.7" width="135.3" height="189.33"/><path class="cls-9" d="M1849.3-389h-11v-11h22A11,11,0,0,1,1849.3-389Z" transform="translate(-1539.1 593)"/><path class="cls-8" d="M1849.3-389H1714a11,11,0,0,1-11-11h135.3a11,11,0,0,0,11,11h0Z" transform="translate(-1539.1 593)"/><path class="cls-7" d="M1838-589v189h22.3a11,11,0,0,1-11,11H1714a11,11,0,0,1-11-11V-589h135m22,189h0m-18-193H1699v193a15,15,0,0,0,15,15h135.3a14.7,14.7,0,0,0,14.7-15v-4h-22V-593h0Z" transform="translate(-1539.1 593)"/><line class="cls-10" x1="187.4" y1="16.7" x2="279.9" y2="16.7"/><line class="cls-10" x1="176.3" y1="29.1" x2="266.4" y2="29.1"/><line class="cls-10" x1="176.3" y1="41.5" x2="261.4" y2="41.5"/><line class="cls-10" x1="176.3" y1="54" x2="279.9" y2="54"/><line class="cls-10" x1="176.3" y1="66.4" x2="266.4" y2="66.4"/><line class="cls-10" x1="176.3" y1="78.8" x2="279.9" y2="78.8"/><line class="cls-10" x1="176.3" y1="91.3" x2="263.9" y2="91.3"/><line class="cls-10" x1="187.4" y1="116.1" x2="279.9" y2="116.1"/><line class="cls-10" x1="176.3" y1="128.6" x2="279.9" y2="128.6"/><line class="cls-10" x1="176.3" y1="141" x2="263.9" y2="141"/><line class="cls-10" x1="187.4" y1="165.9" x2="279.9" y2="165.9"/><line class="cls-10" x1="176.3" y1="178.3" x2="237.1" y2="178.3"/><rect class="cls-4" x="96.2" y="163.1" width="13.5" height="81.08" rx="2" ry="2"/><path class="cls-7" d="M1646.8-427.9v77.1h-9.5v-77.1h9.5m0-4h-9.5a4,4,0,0,0-4,4v77.1a4,4,0,0,0,4,4h9.5a4,4,0,0,0,4-4v-77.1a4,4,0,0,0-4-4h0Z" transform="translate(-1539.1 593)"/><path class="cls-5" d="M1637-421.3a36.2,36.2,0,0,0,5,.4,36.2,36.2,0,0,0,5-.4V-428h-10v6.7Z" transform="translate(-1539.1 593)"/><rect id="_Rectangle_2" data-name="&lt;Rectangle&gt;" class="cls-11" x="75.1" y="85.4" width="55.7" height="78.67" rx="27.9" ry="27.9"/><g class="cls-12"><rect class="cls-13" x="74.9" y="85" width="19" height="26"/><rect class="cls-13" x="93.9" y="85" width="18" height="26"/><rect class="cls-13" x="111.9" y="85" width="19" height="26"/><rect class="cls-13" x="74.9" y="111" width="19" height="26"/><rect class="cls-13" x="93.9" y="111" width="18" height="26"/><rect class="cls-13" x="111.9" y="111" width="19" height="26"/><rect class="cls-13" x="74.9" y="137" width="19" height="27"/><rect class="cls-13" x="93.9" y="137" width="18" height="27"/><rect class="cls-13" x="111.9" y="137" width="19" height="27"/></g><rect id="_Rectangle_3" data-name="&lt;Rectangle&gt;" class="cls-14" x="75.1" y="85.4" width="55.7" height="78.67" rx="27.9" ry="27.9"/><path class="cls-15" d="M1679.9-438.5a42.6,42.6,0,0,1-23.7,21.6" transform="translate(-1539.1 593)"/><path class="cls-15" d="M1659.8-518.5a38.4,38.4,0,0,1,16.1,13.1" transform="translate(-1539.1 593)"/><path class="cls-15" d="M1620.3-515.4a42,42,0,0,1,28.3-6.1" transform="translate(-1539.1 593)"/><path class="cls-15" d="M1606.2-501.8a51.3,51.3,0,0,1,4.6-5.8" transform="translate(-1539.1 593)"/><path class="cls-15" d="M1677.1-472.3c0,2.5,0,5.1.1,7.6" transform="translate(-1539.1 593)"/><path class="cls-15" d="M1608-487.8c6.2-25.7,40.2-34.9,58.9-16.4,5.7,5.6,8.7,12.9,9.6,20.8" transform="translate(-1539.1 593)"/><path class="cls-15" d="M1624-426.8a32.3,32.3,0,0,1-10.8-9.7" transform="translate(-1539.1 593)"/><path class="cls-16" d="M1698.7-344a15.7,15.7,0,0,0-15.7-15.7h-82a15.7,15.7,0,0,0-15.7,15.7h113.3Z" transform="translate(-1539.1 593)"/><line class="cls-17" x1="82.4" y1="240" x2="145" y2="240"/><line class="cls-18" x1="167.9" y1="7.5" x2="292.9" y2="7.5"/></g></svg>