<svg id="Landing_Page" data-name="Landing Page" xmlns="http://www.w3.org/2000/svg" xmlns:xlink="http://www.w3.org/1999/xlink" viewBox="0 0 366.3 379.9"><defs><style>.cls-1{fill:#e2ff93;}.cls-2{clip-path:url(#clip-path);}.cls-3,.cls-8{fill:#e0e6d1;}.cls-4{fill:#a8ad9d;}.cls-12,.cls-5{fill:none;}.cls-5,.cls-6,.cls-8{stroke:#192006;}.cls-11,.cls-12,.cls-5,.cls-6,.cls-8{stroke-linecap:round;stroke-miterlimit:10;stroke-width:4px;}.cls-11,.cls-6,.cls-9{fill:#383a34;}.cls-7{fill:#a6ce39;}.cls-10{fill:#192006;}.cls-11,.cls-12{stroke:#e2ff93;}.cls-13{fill:#ffbed9;}.cls-14{fill:#ff93bf;}.cls-15{fill:#811742;}.cls-16{fill:#da3176;}</style><clipPath id="clip-path" transform="translate(-1530.7 -175.1)"><circle id="_Ellipse_" data-name="&lt;Ellipse&gt;" class="cls-1" cx="1716" cy="321.1" r="144"/></clipPath></defs><title>itdev</title><g id="Hero"><circle id="_Ellipse_2" data-name="&lt;Ellipse&gt;" class="cls-1" cx="185.3" cy="146" r="144"/><g class="cls-2"><path class="cls-3" d="M1845,406v10H1586V406h-30.6a26.1,26.1,0,0,0,.5,7.2c1.3,6.3-8.4,9-9.6,2.7a40.2,40.2,0,0,1-.8-9.8H1544V555h345V406h-44Z" transform="translate(-1530.7 -175.1)"/><rect class="cls-4" x="55.3" y="230.9" width="259" height="10"/></g><path class="cls-5" d="M1867.8,406H1895" transform="translate(-1530.7 -175.1)"/><path class="cls-5" d="M1558.9,406h296.3" transform="translate(-1530.7 -175.1)"/><path class="cls-5" d="M1541.1,406h5.1" transform="translate(-1530.7 -175.1)"/><circle id="_Ellipse_3" data-name="&lt;Ellipse&gt;" class="cls-5" cx="187.3" cy="146" r="144"/><rect class="cls-6" x="1590.6" y="198.4" width="137" height="227" transform="translate(440.4 -1522.3) rotate(90)"/><rect class="cls-7" x="19.5" y="73.4" width="217.1" height="122.1"/><path class="cls-8" d="M1784.7,389.6a9.1,9.1,0,0,1-9.1,9.1H1541.8a9.1,9.1,0,0,1-9.1-9.1v-9.1h252v9.1Z" transform="translate(-1530.7 -175.1)"/><rect class="cls-9" x="105.3" y="209.3" width="46.3" height="4.38" rx="2.2" ry="2.2"/><rect class="cls-10" x="25.2" y="184.1" width="5.7" height="5.72" rx="1" ry="1"/><rect class="cls-10" x="25.2" y="169.1" width="5.7" height="5.72" rx="1" ry="1"/><rect class="cls-10" x="25.2" y="154.1" width="5.7" height="5.72" rx="1" ry="1"/><rect class="cls-10" x="25.2" y="139.1" width="5.7" height="5.72" rx="1" ry="1"/><rect class="cls-10" x="25.2" y="124.1" width="5.7" height="5.72" rx="1" ry="1"/><rect class="cls-10" x="25.2" y="109.1" width="5.7" height="5.72" rx="1" ry="1"/><rect class="cls-10" x="25.2" y="94.1" width="5.7" height="5.72" rx="1" ry="1"/><rect class="cls-10" x="25.2" y="79.1" width="5.7" height="5.72" rx="1" ry="1"/><line class="cls-11" x1="73.2" y1="82" x2="105.3" y2="82"/><line class="cls-6" x1="116.5" y1="82" x2="173" y2="82"/><line class="cls-6" x1="40" y1="82" x2="59.6" y2="82"/><line class="cls-5" x1="55" y1="97" x2="76.1" y2="97"/><line class="cls-5" x1="94.7" y1="97" x2="152" y2="97"/><line class="cls-5" x1="70" y1="112" x2="127.6" y2="112"/><line class="cls-5" x1="55.3" y1="127" x2="170" y2="127"/><line class="cls-12" x1="85" y1="142" x2="145.3" y2="142"/><line class="cls-5" x1="55" y1="157" x2="65" y2="157"/><line class="cls-5" x1="70" y1="172" x2="123" y2="172"/><line class="cls-12" x1="40" y1="187" x2="68.8" y2="187"/><path class="cls-3" d="M1776.1,367.7A69.2,69.2,0,0,1,1757,232V192h38v40a69.3,69.3,0,0,1,50.1,66.5C1845.1,336.6,1814.2,367.7,1776.1,367.7Z" transform="translate(-1530.7 -175.1)"/><path class="cls-10" d="M1793,194v39.5a67,67,0,1,1-34,0V194h34m4-4h-42v40.5a71.8,71.8,0,0,0-35,24.2,70.4,70.4,0,0,0-15,43.7,71.3,71.3,0,0,0,71.1,71.2,71,71,0,0,0,70.9-71.2,71.3,71.3,0,0,0-50.1-67.9V190h0Z" transform="translate(-1530.7 -175.1)"/><path class="cls-13" d="M1776,239a59.5,59.5,0,0,1,59.5,59.5H1776V239Z" transform="translate(-1530.7 -175.1)"/><path class="cls-14" d="M1835.5,298.5a59.5,59.5,0,0,1-91.6,50.1l32.1-50.1h59.5Z" transform="translate(-1530.7 -175.1)"/><path class="cls-15" d="M1743.9,348.6a59.5,59.5,0,0,1,7.2-104.2l24.9,54.1Z" transform="translate(-1530.7 -175.1)"/><path class="cls-16" d="M1751.1,244.4l5-2A59.4,59.4,0,0,1,1776,239v59.5Z" transform="translate(-1530.7 -175.1)"/><rect class="cls-4" x="228.3" y="18.9" width="34" height="7"/><path class="cls-3" d="M1754.6,194.6a5.6,5.6,0,1,1,0-11.1h42.9a5.6,5.6,0,1,1,0,11.1h-42.9Z" transform="translate(-1530.7 -175.1)"/><path class="cls-10" d="M1797.5,185a4,4,0,0,1,0,8h-42.9a4,4,0,0,1,0-8h42.9m0-3.1h-42.9a7.1,7.1,0,0,0,0,14.3h42.9a7.1,7.1,0,0,0,0-14.3h0Z" transform="translate(-1530.7 -175.1)"/><circle class="cls-10" cx="1682.6" cy="203.4" r="4.3" transform="translate(-1181.7 1074.3) rotate(-45)"/><circle class="cls-10" cx="1812.1" cy="387" r="4.3" transform="translate(-1273.6 1219.6) rotate(-45)"/><circle class="cls-10" cx="1730.7" cy="223.3" r="3.7" transform="translate(-1181.7 1114.1) rotate(-45)"/><path class="cls-5" d="M1629.5,227h62.7" transform="translate(-1530.7 -175.1)"/><path class="cls-5" d="M1600,227h21.9" transform="translate(-1530.7 -175.1)"/><path class="cls-5" d="M1585.9,227h5.6" transform="translate(-1530.7 -175.1)"/><line class="cls-5" x1="297.8" y1="190.6" x2="358.1" y2="190.6"/><line class="cls-5" x1="286.6" y1="190.6" x2="291" y2="190.6"/></g></svg>