<svg id="Landing_Page" data-name="Landing Page" xmlns="http://www.w3.org/2000/svg" xmlns:xlink="http://www.w3.org/1999/xlink" viewBox="0 0 357.9 379.9"><defs><style>.cls-1,.cls-14{fill:#e2ff93;}.cls-13,.cls-2,.cls-8{fill:#e0e6d1;}.cls-12,.cls-13,.cls-14,.cls-2,.cls-6{stroke:#192006;}.cls-10,.cls-12,.cls-13,.cls-14,.cls-2,.cls-6{stroke-linecap:round;}.cls-10,.cls-12,.cls-14,.cls-2,.cls-6{stroke-miterlimit:10;}.cls-12,.cls-13,.cls-14,.cls-2{stroke-width:4px;}.cls-3{clip-path:url(#clip-path);}.cls-4{fill:#ff93bf;}.cls-5{fill:#bf6e8f;}.cls-10,.cls-12,.cls-6{fill:none;}.cls-10,.cls-6{stroke-width:4px;}.cls-7{fill:#192006;}.cls-9{fill:#a8ad9d;}.cls-10{stroke:#fff;}.cls-11{clip-path:url(#clip-path-2);}.cls-13{stroke-linejoin:round;}.cls-15{fill:#658117;}</style><clipPath id="clip-path" transform="translate(-1539.1 210.9)"><circle id="_Ellipse_" data-name="&lt;Ellipse&gt;" class="cls-1" cx="1716" cy="-64.9" r="144"/></clipPath><clipPath id="clip-path-2" transform="translate(-1539.1 210.9)"><rect id="_Rectangle_" data-name="&lt;Rectangle&gt;" class="cls-2" x="1579.9" y="-156" width="248.5" height="22.31"/></clipPath></defs><title>lembaga</title><g id="Hero"><circle id="_Ellipse_2" data-name="&lt;Ellipse&gt;" class="cls-1" cx="177" cy="146" r="144"/><g class="cls-3"><path class="cls-4" d="M1845,20V30H1586V20h-30.6a26.1,26.1,0,0,0,.5,7.2c1.3,6.3-8.4,9-9.6,2.7a40.2,40.2,0,0,1-.8-9.8H1544V169h345V20h-44Z" transform="translate(-1539.1 210.9)"/><rect class="cls-5" x="46.9" y="230.9" width="259" height="10"/></g><path class="cls-6" d="M1867.8,20H1895" transform="translate(-1539.1 210.9)"/><path class="cls-6" d="M1558.9,20h296.3" transform="translate(-1539.1 210.9)"/><path class="cls-6" d="M1541.1,20h5.1" transform="translate(-1539.1 210.9)"/><circle id="_Ellipse_3" data-name="&lt;Ellipse&gt;" class="cls-6" cx="179" cy="146" r="144"/><circle class="cls-7" cx="1748.8" cy="-177.4" r="4.3" transform="translate(-901.5 1395.5) rotate(-45)"/><path class="cls-6" d="M1667.2-189h-62.7" transform="translate(-1539.1 210.9)"/><path class="cls-6" d="M1696.7-189h-21.9" transform="translate(-1539.1 210.9)"/><path class="cls-6" d="M1710.8-189h-5.6" transform="translate(-1539.1 210.9)"/><rect class="cls-8" x="57.5" y="82.3" width="215" height="148.58"/><path class="cls-7" d="M1809.6-126.6V18h-211V-126.6h211m4-4h-219V22h219V-130.6h0Z" transform="translate(-1539.1 210.9)"/><rect class="cls-9" x="59.6" y="84.3" width="211" height="16.96"/><path class="cls-9" d="M1623.7-6.3v-94.4h2.6c3.5,0,6.4-3.3,6.4-6.8v-4.7a6.4,6.4,0,0,0-6.4-6.4h-2.6v-8h-32.2v8h-2.6a6.4,6.4,0,0,0-6.4,6.4v4.7c0,3.5,2.9,6.8,6.4,6.8h2.6V-6.3a28.5,28.5,0,0,0-13,24.3h58.1A28.5,28.5,0,0,0,1623.7-6.3Z" transform="translate(-1539.1 210.9)"/><path class="cls-9" d="M1816.7-6.3v-94.4h2.6c3.5,0,6.4-3.3,6.4-6.8v-4.7a6.4,6.4,0,0,0-6.4-6.4h-2.6v-8h-32.2v8H1782a6.4,6.4,0,0,0-6.4,6.4v4.7c0,3.5,2.9,6.8,6.4,6.8h2.6V-6.3a28.5,28.5,0,0,0-13,24.3h58.1A28.5,28.5,0,0,0,1816.7-6.3Z" transform="translate(-1539.1 210.9)"/><rect class="cls-8" x="41.8" y="82.3" width="35.6" height="148.58"/><path class="cls-7" d="M1614.4-126.6V18h-31.6V-126.6h31.6m4-4h-39.6V22h39.6V-130.6h0Z" transform="translate(-1539.1 210.9)"/><rect id="_Rectangle_2" data-name="&lt;Rectangle&gt;" class="cls-9" x="43.5" y="103.1" width="32.2" height="11.6"/><path class="cls-8" d="M1567.6,20V18a31.1,31.1,0,0,1,62.1,0v2h-62.1Z" transform="translate(-1539.1 210.9)"/><path class="cls-7" d="M1598.6-11a29,29,0,0,1,29.1,29h-58.1a29,29,0,0,1,29.1-29m0-4a33.1,33.1,0,0,0-33.1,33v4h66.1V18a33.1,33.1,0,0,0-33.1-33h0Z" transform="translate(-1539.1 210.9)"/><path class="cls-10" d="M1573.9,14a25.1,25.1,0,0,1,49.5,0" transform="translate(-1539.1 210.9)"/><path class="cls-2" d="M1623.7-107.1a6.4,6.4,0,0,1-6.4,6.4H1580a6.4,6.4,0,0,1-6.4-6.4v-5.1a6.4,6.4,0,0,1,6.4-6.4h37.3a6.4,6.4,0,0,1,6.4,6.4v5.1Z" transform="translate(-1539.1 210.9)"/><rect class="cls-8" x="252.7" y="82.3" width="35.6" height="148.58"/><path class="cls-7" d="M1825.4-126.6V18h-31.6V-126.6h31.6m4-4h-39.6V22h39.6V-130.6h0Z" transform="translate(-1539.1 210.9)"/><path class="cls-8" d="M1778.5,20V18a31.1,31.1,0,0,1,62.1,0v2h-62.1Z" transform="translate(-1539.1 210.9)"/><path class="cls-7" d="M1809.6-11a29,29,0,0,1,29.1,29h-58.1a29,29,0,0,1,29.1-29m0-4a33.1,33.1,0,0,0-33.1,33v4h66.1V18a33.1,33.1,0,0,0-33.1-33h0Z" transform="translate(-1539.1 210.9)"/><path class="cls-10" d="M1784.8,14a25.1,25.1,0,0,1,49.5,0" transform="translate(-1539.1 210.9)"/><rect id="_Rectangle_3" data-name="&lt;Rectangle&gt;" class="cls-9" x="254.4" y="103.1" width="32.2" height="11.6"/><path class="cls-2" d="M1834.6-107.1a6.4,6.4,0,0,1-6.4,6.4h-37.3a6.4,6.4,0,0,1-6.4-6.4v-5.1a6.4,6.4,0,0,1,6.4-6.4h37.3a6.4,6.4,0,0,1,6.4,6.4v5.1Z" transform="translate(-1539.1 210.9)"/><path class="cls-2" d="M1842.7-122.6a3.8,3.8,0,0,1-3.8,4H1569.4a3.8,3.8,0,0,1-3.8-4v-11.2h277.1v11.2Z" transform="translate(-1539.1 210.9)"/><rect id="_Rectangle_4" data-name="&lt;Rectangle&gt;" class="cls-8" x="40.8" y="54.9" width="248.5" height="22.31"/><g class="cls-11"><polygon class="cls-9" points="26.5 72.7 303.6 72.7 165 41.9 26.5 72.7"/></g><rect id="_Rectangle_5" data-name="&lt;Rectangle&gt;" class="cls-12" x="40.8" y="54.9" width="248.5" height="22.31"/><polygon class="cls-13" points="26.5 77.2 303.6 77.2 165 46.4 26.5 77.2"/><rect class="cls-8" x="143.7" y="159.1" width="42.7" height="71.83"/><path class="cls-7" d="M1723.5-49.8V18h-38.7V-49.8h38.7m4-4h-46.7V22h46.7V-53.8h0Z" transform="translate(-1539.1 210.9)"/><rect class="cls-9" x="153.4" y="169.1" width="9.8" height="24.1"/><rect class="cls-9" x="166.8" y="169.1" width="9.8" height="24.1"/><rect class="cls-9" x="153.4" y="196.8" width="9.8" height="24.1"/><rect class="cls-9" x="166.8" y="196.8" width="9.8" height="24.1"/><rect class="cls-14" x="97.1" y="120.9" width="31.3" height="71.39"/><line class="cls-14" x1="89.9" y1="192.3" x2="136.4" y2="192.3"/><rect class="cls-15" x="101.6" y="125.4" width="5.4" height="18.74"/><rect class="cls-15" x="109.6" y="125.4" width="6.3" height="18.74"/><rect class="cls-15" x="118.5" y="125.4" width="5.4" height="18.74"/><rect class="cls-15" x="101.6" y="147.7" width="5.4" height="17.85"/><rect class="cls-15" x="109.6" y="147.7" width="6.3" height="17.85"/><rect class="cls-15" x="118.5" y="147.7" width="5.4" height="17.85"/><rect class="cls-15" x="101.6" y="169.1" width="5.4" height="18.74"/><rect class="cls-15" x="109.6" y="169.1" width="6.3" height="18.74"/><rect class="cls-15" x="118.5" y="169.1" width="5.4" height="18.74"/><rect class="cls-14" x="199.9" y="120.9" width="31.3" height="71.39"/><line class="cls-14" x1="192.7" y1="192.3" x2="239.2" y2="192.3"/><rect class="cls-15" x="204.4" y="125.4" width="5.4" height="18.74"/><rect class="cls-15" x="212.4" y="125.4" width="6.3" height="18.74"/><rect class="cls-15" x="221.3" y="125.4" width="5.4" height="18.74"/><rect class="cls-15" x="204.4" y="147.7" width="5.4" height="17.85"/><rect class="cls-15" x="212.4" y="147.7" width="6.3" height="17.85"/><rect class="cls-15" x="221.3" y="147.7" width="5.4" height="17.85"/><rect class="cls-15" x="204.4" y="169.1" width="5.4" height="18.74"/><rect class="cls-15" x="212.4" y="169.1" width="6.3" height="18.74"/><rect class="cls-15" x="221.3" y="169.1" width="5.4" height="18.74"/><line class="cls-10" x1="31.4" y1="83.3" x2="246.4" y2="83.3"/><line class="cls-10" x1="148.2" y1="164.1" x2="168" y2="164.1"/><line class="cls-10" x1="175.2" y1="164.1" x2="179" y2="164.1"/><line class="cls-6" x1="285.2" y1="156.6" x2="345.6" y2="156.6"/><line class="cls-6" x1="274.1" y1="156.6" x2="278.4" y2="156.6"/></g></svg>